<svg xmlns="http://www.w3.org/2000/svg" version="1.1" xmlns:xlink="http://www.w3.org/1999/xlink"
    xmlns:svgjs="http://svgjs.com/svgjs" width="1440" height="500" preserveAspectRatio="none" viewBox="0 0 1440 500">
    <g mask="url(&quot;#SvgjsMask1144&quot;)" fill="none">
        <rect width="1440" height="500" x="0" y="0" fill="rgba(180, 43, 68, 1)"></rect>
        <path
            d="M0,706.816C130.579,704.173,216.483,568.417,301.682,469.427C368.68,391.585,377.262,283.192,436.697,199.433C516.346,87.186,710.352,35.955,706.902,-101.637C703.59,-233.724,522.692,-279.957,422.516,-366.112C338.617,-438.268,274.517,-543.186,166.349,-566.532C60.11,-589.461,-36.378,-507.4,-143.362,-488.245C-268.126,-465.907,-422.905,-533.614,-513.366,-444.834C-602.556,-357.302,-540.89,-204.02,-558.963,-80.367C-577.092,43.669,-670.572,168.441,-619.75,283.03C-568.941,397.589,-413.082,411.062,-309.634,481.8C-202.139,555.305,-130.197,709.451,0,706.816"
            fill="#751c2c"></path>
        <path
            d="M1440 879.395C1509.608 873.1279999999999 1557.321 811.5070000000001 1618.632 777.957 1685.914 741.14 1778.42 738.333 1817.925 672.593 1857.703 606.397 1829.145 522.071 1818.353 445.601 1807.533 368.93600000000004 1807.907 283.582 1755.04 227.01600000000002 1702.59 170.89600000000002 1615.357 175.207 1542.605 150.558 1466.022 124.61099999999999 1393.786 55.603999999999985 1316.185 78.32600000000002 1238.587 101.04700000000003 1209.116 193.844 1164.492 261.27099999999996 1125.526 320.15 1082.488 377.267 1072.122 447.10699999999997 1061.729 517.131 1076.952 587.975 1106.45 652.327 1135.9189999999999 716.617 1180.966 772.3 1239.427 812.098 1298.926 852.6030000000001 1368.312 885.8489999999999 1440 879.395"
            fill="#d7566e"></path>
    </g>
    <defs>
        <mask id="SvgjsMask1144">
            <rect width="1440" height="500" fill="#ffffff"></rect>
        </mask>
    </defs>
</svg>